<svg width="24" height="24" viewBox="0 0 24 24" fill="none" xmlns="http://www.w3.org/2000/svg">
<g clip-path="url(#clip0_1528_6057)">
<path d="M7.23816 19.7035L4.56629 18.7565C4.28565 18.657 4.09805 18.3916 4.09805 18.0938V1.99567H19.9019V18.0938C19.9019 18.3916 19.7144 18.657 19.4337 18.7565L16.7513 19.7035C16.6771 19.7298 7.31363 19.7303 7.23816 19.7035Z" fill="#D98FF8"/>
<path d="M12 1.99567V19.7234C14.358 19.7234 16.7142 19.7167 16.7513 19.7035L19.4337 18.7565C19.7144 18.657 19.9019 18.3916 19.9019 18.0938V1.99567H12Z" fill="#CA75F5"/>
<path d="M17.4375 2.10938H6.5625V23.2969C6.5625 23.6852 6.87731 24 7.26562 24C7.65394 24 7.96875 23.6852 7.96875 23.2969V22.5938H9.71873V23.2969C9.71873 23.6852 10.0335 24 10.4219 24C10.8102 24 11.125 23.6852 11.125 23.2969V22.5938H12.875V23.2969C12.875 23.6852 13.1898 24 13.5781 24C13.9664 24 14.2812 23.6852 14.2812 23.2969V22.5938H16.0312V23.2969C16.0312 23.6852 16.346 24 16.7343 24C17.1226 24 17.4375 23.6852 17.4375 23.2969L17.4375 2.10938Z" fill="#FF405C"/>
<path d="M12 2.10938V22.5938H12.875V23.2969C12.875 23.6852 13.1898 24 13.5781 24C13.9664 24 14.2812 23.6852 14.2812 23.2969V22.5938H16.0312V23.2969C16.0312 23.6852 16.346 24 16.7343 24C17.1226 24 17.4375 23.6852 17.4375 23.2969V2.10938H12Z" fill="#EA1C81"/>
<path d="M14.6379 10.9062C14.5633 10.6745 14.374 10.498 14.1378 10.4394L13.1337 10.1907L12.5986 9.32262C12.4709 9.11539 12.2451 8.98897 12.0016 8.9884H12C11.7572 8.9884 11.5315 9.1137 11.4031 9.31986L10.8563 10.198L9.86537 10.4386C9.62883 10.496 9.4388 10.6717 9.36305 10.9031C9.2873 11.1344 9.33657 11.3884 9.49332 11.5747L10.1595 12.3661L10.0821 13.3829C10.0636 13.6256 10.172 13.8606 10.3686 14.0042C10.5652 14.1477 10.8221 14.1793 11.0476 14.0878L12.0061 13.6987L12.9493 14.0865C13.0355 14.122 13.1263 14.1394 13.2166 14.1394C13.3624 14.1394 13.5069 14.094 13.6287 14.006C13.826 13.8634 13.9354 13.6288 13.9181 13.386L13.8443 12.3542L14.5045 11.577C14.6622 11.3917 14.7126 11.1379 14.6379 10.9062Z" fill="#FFF36C"/>
<path d="M20.1562 2.8125H3.84375C3.45544 2.8125 3.14062 2.49769 3.14062 2.10938C3.14062 1.72106 3.45544 1.40625 3.84375 1.40625H20.1562C20.5446 1.40625 20.8594 1.72106 20.8594 2.10938C20.8594 2.49769 20.5446 2.8125 20.1562 2.8125Z" fill="#F0F5FA"/>
<path d="M4.05938 2.9177C4.50556 1.84126 3.99464 0.606928 2.91821 0.160742C1.84177 -0.285444 0.607439 0.225476 0.161254 1.30191C-0.284932 2.37835 0.225988 3.61268 1.30243 4.05887C2.37886 4.50505 3.61319 3.99413 4.05938 2.9177Z" fill="#FFF36C"/>
<path d="M14.6379 10.9062C14.5633 10.6745 14.374 10.498 14.1378 10.4394L13.1337 10.1907L12.5986 9.32262C12.4709 9.11539 12.2451 8.98897 12.0016 8.9884H12V13.7013L12.0062 13.6988L12.9494 14.0866C13.0355 14.122 13.1263 14.1394 13.2167 14.1394C13.3624 14.1394 13.507 14.0941 13.6288 14.006C13.826 13.8634 13.9355 13.6289 13.9181 13.3861L13.8443 12.3542L14.5046 11.5771C14.6622 11.3917 14.7126 11.1379 14.6379 10.9062Z" fill="#FFDE46"/>
<path d="M20.1562 1.40625H12V2.8125H20.1562C20.5446 2.8125 20.8594 2.49769 20.8594 2.10938C20.8594 1.72106 20.5446 1.40625 20.1562 1.40625Z" fill="#D7E3F0"/>
<path d="M22.2258 4.19512C23.3757 4.00872 24.1567 2.9255 23.9703 1.77567C23.7839 0.625835 22.7007 -0.155183 21.5508 0.0312134C20.401 0.217609 19.62 1.30084 19.8064 2.45067C19.9928 3.6005 21.076 4.38152 22.2258 4.19512Z" fill="#FFDE46"/>
</g>
<defs>
<clipPath id="clip0_1528_6057">
<rect width="24" height="24" fill="white"/>
</clipPath>
</defs>
</svg>
