<svg width="40" height="40" viewBox="0 0 40 40" fill="none" xmlns="http://www.w3.org/2000/svg">
<g clip-path="url(#clip0_1528_6239)">
<path d="M26.6009 19.6628L22.0022 34.3843C21.8383 34.9043 22.0551 35.4687 22.5249 35.7453L26.6506 38.1734C26.8357 38.2823 27.0405 38.3352 27.244 38.3352C27.5573 38.3352 27.8669 38.2096 28.0943 37.9696L38.5088 26.9775C38.5674 26.9156 38.6184 26.8483 38.6614 26.777C38.8339 26.4913 26.7293 19.2556 26.6009 19.6628Z" fill="#005285"/>
<path d="M36.407 18.4142C36.2255 17.8467 35.6466 17.5057 35.0623 17.6228L27.4422 19.1466C27.158 19.2035 26.9104 19.3625 26.7402 19.586L38.6611 26.777C38.8334 26.4913 38.8781 26.1413 38.774 25.8159L36.407 18.4142Z" fill="#0065A3"/>
<path d="M16.9768 35.198L10.4625 22.6785C10.4602 22.6741 10.4577 22.6701 10.4553 22.6658L0.533905 31.1868L11.8468 39.5746C12.0545 39.7286 12.2994 39.805 12.5439 39.805C12.8151 39.805 13.0857 39.711 13.3039 39.5249L16.6981 36.6291C17.113 36.2751 17.2285 35.6817 16.9768 35.198Z" fill="#297ACC"/>
<path d="M31.4148 10.9659L20.826 0.344195C20.6063 0.123863 20.308 0 19.9969 0C19.6858 0 19.3874 0.123863 19.1678 0.344195L8.5788 10.9659H31.4148Z" fill="#80EAFF"/>
<path d="M19.9968 10.9659H31.4148L20.826 0.344195C20.6063 0.123863 20.308 0 19.9969 0L19.9968 10.9659Z" fill="#66B3FF"/>
<path d="M6.40334 2.77061C5.75678 2.77061 5.2326 2.24644 5.2326 1.59988V1.20979C5.2326 0.563238 5.75678 0.0390625 6.40334 0.0390625C7.04989 0.0390625 7.57407 0.563238 7.57407 1.20979V1.59988C7.57407 2.24644 7.04989 2.77061 6.40334 2.77061Z" fill="#FFF36C"/>
<path d="M24.5561 11.786L21.1138 0.820137C20.9606 0.332098 20.5084 0 19.9969 0C19.4853 0 19.0331 0.332098 18.8798 0.820059L15.4376 11.7859C15.326 12.1415 15.3904 12.529 15.6109 12.8294C15.8315 13.1298 16.1819 13.3073 16.5546 13.3073H23.4391C23.8118 13.3073 24.1623 13.1299 24.3828 12.8294C24.6034 12.5289 24.6677 12.1415 24.5561 11.786Z" fill="#66B3FF"/>
<path d="M8.55234 10.9658L15.5107 36.4424H24.4813L26.4415 22.1883L31.4429 10.9658H8.55234Z" fill="#66B3FF"/>
<path d="M19.9968 10.9658V36.4424H24.4813L31.4429 10.9658H19.9968Z" fill="#297ACC"/>
<path d="M15.695 10.9658L17.3107 36.4424H22.6825L24.2986 10.9658H15.695Z" fill="#297ACC"/>
<path d="M6.40334 7.81773C5.75678 7.81773 5.2326 7.29356 5.2326 6.647V6.25691C5.2326 5.61036 5.75678 5.08618 6.40334 5.08618C7.04989 5.08618 7.57407 5.61036 7.57407 6.25691V6.647C7.57407 7.29356 7.04989 7.81773 6.40334 7.81773Z" fill="#FFF36C"/>
<path d="M9.12195 5.09928H8.73186C8.0853 5.09928 7.56113 4.5751 7.56113 3.92854C7.56113 3.28199 8.0853 2.75781 8.73186 2.75781H9.12195C9.7685 2.75781 10.2927 3.28199 10.2927 3.92854C10.2927 4.5751 9.7685 5.09928 9.12195 5.09928Z" fill="#FFF36C"/>
<path d="M4.07477 5.09928H3.68468C3.03812 5.09928 2.51395 4.5751 2.51395 3.92854C2.51395 3.28199 3.03812 2.75781 3.68468 2.75781H4.07477C4.72132 2.75781 5.2455 3.28199 5.2455 3.92854C5.2455 4.5751 4.72132 5.09928 4.07477 5.09928Z" fill="#FFF36C"/>
<path d="M36.088 6.90709C35.4415 6.90709 34.9173 6.38291 34.9173 5.73636V5.34627C34.9173 4.69971 35.4415 4.17554 36.088 4.17554C36.7346 4.17554 37.2588 4.69971 37.2588 5.34627V5.73636C37.2588 6.38291 36.7346 6.90709 36.088 6.90709Z" fill="#FFDE46"/>
<path d="M36.088 11.9545C35.4415 11.9545 34.9173 11.4303 34.9173 10.7837V10.3936C34.9173 9.74708 35.4415 9.2229 36.088 9.2229C36.7346 9.2229 37.2588 9.74708 37.2588 10.3936V10.7837C37.2588 11.4303 36.7346 11.9545 36.088 11.9545Z" fill="#FFDE46"/>
<path d="M38.8066 9.23575H38.4165C37.77 9.23575 37.2458 8.71157 37.2458 8.06502C37.2458 7.41846 37.77 6.89429 38.4165 6.89429H38.8066C39.4532 6.89429 39.9773 7.41846 39.9773 8.06502C39.9773 8.71157 39.4532 9.23575 38.8066 9.23575Z" fill="#FFDE46"/>
<path d="M33.7594 9.23575H33.3693C32.7228 9.23575 32.1986 8.71157 32.1986 8.06502C32.1986 7.41846 32.7228 6.89429 33.3693 6.89429H33.7594C34.406 6.89429 34.9302 7.41846 34.9302 8.06502C34.9302 8.71157 34.406 9.23575 33.7594 9.23575Z" fill="#FFDE46"/>
<path d="M10.4626 22.6785C10.2655 22.2997 9.87784 22.0583 9.45091 22.0485L2.21025 21.8819C2.20112 21.8817 2.19206 21.8816 2.18293 21.8816C1.59905 21.8816 1.10227 22.3132 1.02328 22.8946L0.0474405 30.0711C-0.0100815 30.4941 0.167245 30.915 0.51027 31.1692L0.602367 31.2375L10.5154 22.7801L10.4626 22.6785Z" fill="#66B3FF"/>
<path d="M24.5561 11.786L21.1138 0.820137C20.9606 0.332098 20.5084 0 19.9969 0V13.3073H23.4391C23.8118 13.3073 24.1622 13.1299 24.3828 12.8294C24.6034 12.5289 24.6677 12.1415 24.5561 11.786Z" fill="#297ACC"/>
<path d="M19.9968 10.9658V36.4424H22.6825L24.2698 10.9658H19.9968Z" fill="#0065A3"/>
<path d="M39.4416 37.8431C34.5331 34.6989 27.2718 32.9152 19.5267 32.9462C11.8378 32.9781 4.9084 34.7738 0.51511 37.8726C0.0980952 38.1667 -0.0803243 38.697 0.0739781 39.1832C0.228281 39.6696 0.679715 40 1.18992 40L38.8102 39.9996C39.3301 39.9996 39.7876 39.6568 39.9338 39.1579C40.0798 38.6591 39.8793 38.1236 39.4416 37.8431Z" fill="#A4DE00"/>
<path d="M39.4416 37.8431C34.6326 34.7626 27.5649 32.9893 19.9969 32.9478V39.9999L38.8101 39.9997C39.33 39.9997 39.7875 39.6568 39.9337 39.1579C40.0797 38.6591 39.8793 38.1236 39.4416 37.8431Z" fill="#40D123"/>
</g>
<defs>
<clipPath id="clip0_1528_6239">
<rect width="40" height="40" fill="white"/>
</clipPath>
</defs>
</svg>
