<svg width="20" height="20" viewBox="0 0 20 20" fill="none" xmlns="http://www.w3.org/2000/svg">
<g clip-path="url(#clip0_1528_6007)">
<path d="M19.7275 4.12366C19.4635 3.67941 19.0438 3.36481 18.5455 3.2379L9.79589 1.00928C8.76415 0.746751 7.71117 1.37205 7.44841 2.40366L5.21979 11.1532C5.09284 11.6516 5.16831 12.1706 5.43221 12.6149C5.69611 13.0592 6.11586 13.3738 6.61417 13.5007L15.3638 15.7294C15.5218 15.7696 15.6819 15.7895 15.841 15.7895C16.1837 15.7895 16.5221 15.6972 16.8255 15.517C17.2698 15.253 17.5843 14.8333 17.7113 14.335L19.9399 5.58538C20.0668 5.08711 19.9914 4.56798 19.7275 4.12366Z" fill="#BED2E6"/>
<path d="M15.8633 4.97324C15.4084 4.85739 14.9355 4.92559 14.5318 5.16535C14.1281 5.40515 13.842 5.78779 13.7261 6.24274C13.4869 7.18198 14.0564 8.14078 14.9956 8.38003C15.1406 8.41694 15.286 8.4346 15.4293 8.4346C16.2137 8.43456 16.9306 7.90473 17.1329 7.11049C17.3721 6.17118 16.8026 5.21249 15.8633 4.97324Z" fill="#2E2E2E"/>
<path d="M12.3984 4.62199C12.1586 4.21833 11.776 3.9322 11.321 3.81627C10.866 3.70053 10.3931 3.76861 9.98947 4.00841C9.58581 4.24821 9.29964 4.63082 9.18379 5.08577C8.94454 6.025 9.51401 6.98377 10.4533 7.22306C10.5983 7.25997 10.7437 7.27763 10.8869 7.27763C11.6714 7.27763 12.3883 6.74776 12.5906 5.95356C12.7064 5.49857 12.6382 5.02565 12.3984 4.62199Z" fill="#2E2E2E"/>
<path d="M14.7064 9.51568C14.2514 9.39978 13.7785 9.46802 13.3748 9.70778C12.9712 9.94758 12.685 10.3302 12.5691 10.7852C12.3298 11.7245 12.8993 12.6832 13.8386 12.9225C13.9836 12.9594 14.129 12.977 14.2723 12.977C15.0567 12.977 15.7736 12.4472 15.9759 11.653C16.0918 11.198 16.0235 10.7251 15.7837 10.3214C15.544 9.9177 15.1613 9.63154 14.7064 9.51568Z" fill="#2E2E2E"/>
<path d="M10.9596 6.16034H1.93065C0.866072 6.16034 0 7.02645 0 8.09103V17.12C0 18.1845 0.866072 19.0506 1.93065 19.0506H10.9596C12.0242 19.0506 12.8903 18.1845 12.8903 17.12V8.09103C12.8903 7.02645 12.0242 6.16034 10.9596 6.16034Z" fill="#F0F5FA"/>
<path d="M10.9596 6.16034H6.44514V19.0506H10.9596C12.0242 19.0506 12.8903 18.1845 12.8903 17.12V8.09103C12.8903 7.02645 12.0242 6.16034 10.9596 6.16034Z" fill="#D7E3F0"/>
<path d="M8.78884 12.0196C9.75963 12.0196 10.5466 11.2326 10.5466 10.2618C10.5466 9.29101 9.75963 8.50403 8.78884 8.50403C7.81805 8.50403 7.03107 9.29101 7.03107 10.2618C7.03107 11.2326 7.81805 12.0196 8.78884 12.0196Z" fill="#383D40"/>
<path d="M4.10146 16.7069C5.07225 16.7069 5.85922 15.92 5.85922 14.9492C5.85922 13.9784 5.07225 13.1914 4.10146 13.1914C3.13067 13.1914 2.34369 13.9784 2.34369 14.9492C2.34369 15.92 3.13067 16.7069 4.10146 16.7069Z" fill="#595454"/>
</g>
<defs>
<clipPath id="clip0_1528_6007">
<rect width="20" height="20" fill="white"/>
</clipPath>
</defs>
</svg>
